<svg xmlns="http://www.w3.org/2000/svg" xmlns:xlink="http://www.w3.org/1999/xlink" width="111" height="99" viewBox="0 0 111 99"><defs><clipPath id="a"><rect width="111" height="99" fill="#fff" stroke="#707070" stroke-width="1"/></clipPath></defs><g clip-path="url(#a)"><g transform="translate(26.46 15.446)"><g transform="translate(0)"><path d="M82.089,56.708V55.469a6.979,6.979,0,0,0-6.837-7.1H70.929V44.7a1.2,1.2,0,0,0-1.179-1.224H67.629V39.74a14.1,14.1,0,0,0,6.944-7.662,3.74,3.74,0,0,0,1.451.3c2.427,0,4.188-2.633,4.188-6.262,0-2.837-1.193-4.89-3.065-5.469a20.439,20.439,0,0,0,1.375-7.4c.02-1.382-.958-3.623-2.492-5.711A1.15,1.15,0,0,0,74.378,7.3a1.255,1.255,0,0,0-.223,1.715,9.4,9.4,0,0,1,2.009,4.19,17.859,17.859,0,0,1-1.207,6.54,7.051,7.051,0,0,0-4.945-2.579,29.881,29.881,0,0,1-3.9-7.415,1.168,1.168,0,0,0-2.253.058,11.981,11.981,0,0,1-1.349,2.815,19.165,19.165,0,0,1-5.17,5.382,6.9,6.9,0,0,0-3.386-.887,7.033,7.033,0,0,0-5.445,2.619A17.762,17.762,0,0,1,47.3,13.2c-.025-1.793,1.137-4.192,2.959-6.111A15.466,15.466,0,0,1,61.735,2.448a14.577,14.577,0,0,1,9.156,3.2A1.15,1.15,0,0,0,72.542,5.4a1.255,1.255,0,0,0-.234-1.714A17.057,17.057,0,0,0,61.735,0a17.861,17.861,0,0,0-13.15,5.375c-2.312,2.434-3.671,5.374-3.637,7.864a20.338,20.338,0,0,0,1.373,7.406c-1.871.58-3.063,2.632-3.063,5.469,0,3.628,1.762,6.262,4.189,6.262a3.742,3.742,0,0,0,1.468-.306A14.459,14.459,0,0,0,50.437,35a1.165,1.165,0,0,0,.966.521,1.144,1.144,0,0,0,.676-.222,1.254,1.254,0,0,0,.288-1.705,11.959,11.959,0,0,1-1.172-2.2,6.886,6.886,0,0,0,2.761.576,7.247,7.247,0,0,0,7.052-6.2h1.467A7.25,7.25,0,0,0,69.5,32h.027a6.882,6.882,0,0,0,2.753-.573A11.636,11.636,0,0,1,66.018,37.8l-.044.019a11.056,11.056,0,0,1-4.212.833h-.08a11.089,11.089,0,0,1-6.018-1.8,1.153,1.153,0,0,0-1.625.387,1.251,1.251,0,0,0,.373,1.687,13.523,13.523,0,0,0,1.431.81v3.744H53.719A1.2,1.2,0,0,0,52.54,44.7V48.37H48.218a6.979,6.979,0,0,0-6.837,7.1v1.239a5.1,5.1,0,0,0-4.086,5.06V82.33a1.2,1.2,0,0,0,1.179,1.224H71.729a1.225,1.225,0,0,0,0-2.448H39.652V61.768a2.647,2.647,0,0,1,2.593-2.693H81.224a2.647,2.647,0,0,1,2.593,2.693V81.106H76.861a1.225,1.225,0,0,0,0,2.448H85a1.2,1.2,0,0,0,1.179-1.224V61.768A5.1,5.1,0,0,0,82.089,56.708Zm-6.065-26.78a1.516,1.516,0,0,1-.768-.218c.059-.3.108-.6.15-.908a7.578,7.578,0,0,0,1.277-4.2,7.685,7.685,0,0,0-.161-1.589c1.261.455,1.332,2.626,1.332,3.1,0,1.834-.7,3.814-1.831,3.814ZM64.949,13.183A32.952,32.952,0,0,0,67.343,17.5a7.367,7.367,0,0,0-4.859,5.816H61.007a7.522,7.522,0,0,0-1.734-3.734A20.858,20.858,0,0,0,64.949,13.183Zm-17.5,16.745c-1.131,0-1.831-1.98-1.831-3.814,0-.477.072-2.66,1.343-3.106a7.7,7.7,0,0,0-.155,1.537,7.58,7.58,0,0,0,1.269,4.216q.063.473.156.94a1.522,1.522,0,0,1-.782.227Zm6.508-.406a4.719,4.719,0,0,1-3.693-1.807,1.217,1.217,0,0,0-.282-.391,5.083,5.083,0,0,1-.819-2.78,4.8,4.8,0,1,1,4.794,4.977Zm15.558.028a4.981,4.981,0,0,1,.018-9.955h.018a4.8,4.8,0,0,1,4.391,3.026c.008.021.016.041.025.061a5.112,5.112,0,0,1,.36,1.909,4.893,4.893,0,0,1-4.793,4.959h-.018Zm-.941,18.82H62.914v-.556a1.86,1.86,0,0,1,1.823-1.892h3.836ZM58.2,40.623a13.345,13.345,0,0,0,3.476.476h.089a13.334,13.334,0,0,0,3.508-.471v2.847h-.535a4.1,4.1,0,0,0-3,1.324,4.1,4.1,0,0,0-3-1.324H58.2Zm-3.3,5.3h3.836a1.861,1.861,0,0,1,1.823,1.892v.556H54.9ZM43.739,55.469a4.585,4.585,0,0,1,4.244-4.645v5.8H43.739Zm6.6-4.651H73.13v5.809H50.34Zm25.147,5.809v-5.8a4.585,4.585,0,0,1,4.244,4.645v1.159Z" transform="translate(-37.295 0)"/><path d="M88.477,157.9a2.863,2.863,0,0,0-2.076.893l-1.857,1.928a3.136,3.136,0,0,0,0,4.312l1.857,1.928a2.864,2.864,0,0,0,4.153,0l1.857-1.928a3.136,3.136,0,0,0,0-4.312l-1.857-1.928A2.863,2.863,0,0,0,88.477,157.9Zm2.267,5.4-1.857,1.928a.565.565,0,0,1-.819,0L86.211,163.3a.618.618,0,0,1,0-.85l1.857-1.928a.564.564,0,0,1,.819,0l1.857,1.928A.618.618,0,0,1,90.744,163.3Z" transform="translate(-64.037 -88.462)"/><path d="M50.569,142.759a1.148,1.148,0,0,0-1.667,0l-2.052,2.13a1.257,1.257,0,0,0,0,1.731l2.025,2.1a1.148,1.148,0,0,0,1.667,0,1.257,1.257,0,0,0,0-1.731l-1.191-1.237,1.218-1.265A1.257,1.257,0,0,0,50.569,142.759Z" transform="translate(-42.604 -79.779)"/><path d="M71.479,148.723a1.148,1.148,0,0,0,1.667,0l2.025-2.1a1.257,1.257,0,0,0,0-1.731l-2.052-2.13a1.148,1.148,0,0,0-1.667,0,1.257,1.257,0,0,0,0,1.731l1.218,1.265-1.191,1.237A1.257,1.257,0,0,0,71.479,148.723Z" transform="translate(-56.786 -79.779)"/><path d="M60.568,140.457l-2.426,6.636a1.238,1.238,0,0,0,.684,1.579,1.135,1.135,0,0,0,.418.08,1.181,1.181,0,0,0,1.1-.79l2.426-6.636a1.238,1.238,0,0,0-.684-1.579A1.166,1.166,0,0,0,60.568,140.457Z" transform="translate(-49.268 -78.247)"/></g></g></g></svg>