<svg xmlns="http://www.w3.org/2000/svg" width="13.544" height="18.9" viewBox="0 0 13.544 18.9"><path d="M8.772,2C5.036,2,2,6.237,2,11.45S5.036,20.9,8.772,20.9s6.772-4.237,6.772-9.45S12.508,2,8.772,2Zm0,.822c3.418,0,6.183,3.859,6.183,8.628,0,.029,0,.058,0,.087-.188-.024-.406-.047-.683-.061a12.517,12.517,0,0,0-1.443.025,6.089,6.089,0,0,0,.036-.615,4.559,4.559,0,0,0-.458-2.125,7.956,7.956,0,0,0,.179-1.3,2.569,2.569,0,0,0-.343-1.649L12.156,5.7H12.04a2.237,2.237,0,0,0-1.661.827,3.348,3.348,0,0,0-1.607-.416,3.518,3.518,0,0,0-1.635.418A2.238,2.238,0,0,0,5.474,5.7H5.359l-.085.11a2.531,2.531,0,0,0-.333,1.615,8.5,8.5,0,0,0,.17,1.335,5.026,5.026,0,0,0-.49,2.117,6.09,6.09,0,0,0,.035.617,12.534,12.534,0,0,0-1.382-.022c-.277.014-.494.036-.683.061,0-.027,0-.053,0-.08C2.589,6.681,5.354,2.822,8.772,2.822ZM5.65,6.573A2.015,2.015,0,0,1,6.9,7.279l.138.17.17-.1A3.093,3.093,0,0,1,8.772,6.93a2.915,2.915,0,0,1,1.531.417l.173.106.141-.175a2.017,2.017,0,0,1,1.249-.705A1.849,1.849,0,0,1,12,7.41,7.921,7.921,0,0,1,11.818,8.7l-.044.2.088.168a3.5,3.5,0,0,1,.415,1.789v.022a3.464,3.464,0,0,1-.828,2.454,3.538,3.538,0,0,1-2.705,1,3.539,3.539,0,0,1-2.706-1,3.463,3.463,0,0,1-.827-2.454,4.019,4.019,0,0,1,.443-1.811L5.739,8.9,5.7,8.7a8.4,8.4,0,0,1-.169-1.322A1.9,1.9,0,0,1,5.65,6.573Zm-1.623,5.3c.208,0,.447.019.685.036.023.128.049.254.08.377a9.778,9.778,0,0,0-2.151.282c-.019-.206-.034-.413-.043-.623A9.49,9.49,0,0,1,4.027,11.87Zm9.49.006a9.513,9.513,0,0,1,1.427.073c-.008.207-.023.411-.042.614a9.9,9.9,0,0,0-2.212-.278c.031-.121.057-.244.079-.37C13.033,11.9,13.29,11.88,13.517,11.876Zm-8.6.815a3.721,3.721,0,0,0,.759,1.288A3.533,3.533,0,0,0,7.44,14.993a3.272,3.272,0,0,0-.256.44l-.018-.022a.933.933,0,0,1-.367.128,6.405,6.405,0,0,1-.735.019c-.361,0-.52-.238-.773-.671a2.619,2.619,0,0,0-.478-.641,1.087,1.087,0,0,0-.5-.326l-.024-.006H4.267a.4.4,0,0,0-.394.212.685.685,0,0,0-.077.437.537.537,0,0,0,.161.309c.4.374.474,1.115.726,1.774a1.34,1.34,0,0,0,1.263.965h.765v1.973c-2.07-1.02-3.632-3.533-4.024-6.615A9.635,9.635,0,0,1,4.918,12.691Zm7.647,0a9.771,9.771,0,0,1,2.293.275c-.392,3.083-1.954,5.6-4.025,6.617V17.449a5.019,5.019,0,0,0-.42-1.968,3.183,3.183,0,0,0-.282-.508,3.509,3.509,0,0,0,1.677-.994A3.711,3.711,0,0,0,12.565,12.694ZM8.389,15.189h.825c.239,0,.495.266.7.725a4.149,4.149,0,0,1,.331,1.534v2.383a4.507,4.507,0,0,1-2.944,0V17.449a3.936,3.936,0,0,1,.356-1.525C7.874,15.463,8.15,15.189,8.389,15.189Zm-3.354.486a1.305,1.305,0,0,0,1.028.706,6.31,6.31,0,0,0,.788-.022h0c-.036.144-.063.288-.085.434H5.945a.732.732,0,0,1-.738-.513l0-.006,0,0C5.155,16.143,5.092,15.892,5.035,15.674Z" transform="translate(-2 -2)"/></svg>