<svg xmlns="http://www.w3.org/2000/svg" xmlns:xlink="http://www.w3.org/1999/xlink" width="177" height="109" viewBox="0 0 177 109"><defs><clipPath id="a"><rect width="177" height="109" transform="translate(0.296 -0.212)" fill="#fff" stroke="#707070" stroke-width="1"/></clipPath></defs><g transform="translate(-0.296 0.212)" clip-path="url(#a)"><g transform="translate(40.243 5.628)"><rect width="55.357" height="35.819" rx="12.4" transform="translate(21.166 1.628)" fill="#4db6e4"/><path d="M93,105.4h55.357v9.769a3.256,3.256,0,0,1-3.256,3.256H96.256A3.256,3.256,0,0,1,93,115.169Z" transform="translate(-71.834 -80.978)" fill="#3ba5d3"/><rect width="19.538" height="13.025" rx="6.2" transform="translate(1.628 47.216)" fill="#348ed8"/><path d="M46.969,248.313H37.2l1.628-6.513h6.513Z" transform="translate(-30.687 -181.559)" fill="#d5d5d3"/><path d="M48.441,245.056H40.3l.814-3.256h6.513Z" transform="translate(-32.973 -181.559)" fill="#cececc"/><rect width="19.538" height="13.025" rx="6.2" transform="translate(76.522 45.588)" fill="#348ed8"/><path d="M332.169,242.113H322.4l1.628-6.513h6.513Z" transform="translate(-240.993 -176.987)" fill="#d5d5d3"/><path d="M333.641,238.856H325.5l.814-3.256h6.513Z" transform="translate(-243.279 -176.987)" fill="#cececc"/><rect width="19.538" height="13.025" rx="6.2" transform="translate(1.628 76.522)" fill="#348ed8"/><path d="M46.969,359.913H37.2l1.628-6.513h6.513Z" transform="translate(-30.687 -263.853)" fill="#d5d5d3"/><path d="M48.441,356.656H40.3l.814-3.256h6.513Z" transform="translate(-32.973 -263.853)" fill="#cececc"/><rect width="19.538" height="13.025" rx="6.2" transform="translate(76.522 76.522)" fill="#348ed8"/><path d="M332.169,359.913H322.4l1.628-6.513h6.513Z" transform="translate(-240.993 -263.853)" fill="#d5d5d3"/><path d="M333.641,356.656H325.5l.814-3.256h6.513Z" transform="translate(-243.279 -263.853)" fill="#cececc"/><path d="M31.938,87.294H15.656A3.26,3.26,0,0,0,12.4,90.551v9.769a3.26,3.26,0,0,0,3.256,3.256h4.427l-.814,3.256H17.284v3.256H30.31v-3.256H28.324l-.814-3.256h4.427a3.26,3.26,0,0,0,3.256-3.256V90.551A3.26,3.26,0,0,0,31.938,87.294Zm-6.97,19.538H22.626l.814-3.256h.714Zm6.97-6.513H15.656V90.551H31.938l0,9.769Zm0-42.332H15.656A3.26,3.26,0,0,0,12.4,61.244v9.769a3.26,3.26,0,0,0,3.256,3.256h4.427l-.814,3.256H17.284v3.256H30.31V77.525H28.324l-.814-3.256h4.427a3.26,3.26,0,0,0,3.256-3.256V61.244A3.26,3.26,0,0,0,31.938,57.988Zm-6.97,19.538H22.626l.814-3.256h.714Zm6.97-6.513H15.656V61.244H31.938l0,9.769Zm74.894,16.281H90.551a3.26,3.26,0,0,0-3.256,3.256v9.769a3.26,3.26,0,0,0,3.256,3.256h4.427l-.814,3.256H92.179v3.256H105.2v-3.256h-1.985l-.814-3.256h4.427a3.26,3.26,0,0,0,3.256-3.256V97.877h-3.256v2.442H90.551V90.551h16.281v4.274h3.256V90.551A3.26,3.26,0,0,0,106.832,87.294Zm-7.784,16.281.814,3.256H97.52l.814-3.256Zm7.784-47.216H90.551a3.26,3.26,0,0,0-3.256,3.256v9.769a3.26,3.26,0,0,0,3.256,3.256h4.427L94.164,75.9H92.179v3.256H105.2V75.9h-1.985l-.814-3.256h4.427a3.26,3.26,0,0,0,3.256-3.256V59.616A3.26,3.26,0,0,0,106.832,56.36ZM99.862,75.9H97.52l.814-3.256h.714Zm6.97-6.513H90.551V59.616h16.281l0,9.769ZM90.551,46.591V17.284A4.89,4.89,0,0,0,85.666,12.4H36.822a4.89,4.89,0,0,0-4.884,4.884v2.849h3.256V17.284a1.63,1.63,0,0,1,1.628-1.628H85.666a1.63,1.63,0,0,1,1.628,1.628v17.91h-52.1V23.8H31.938V46.591a4.89,4.89,0,0,0,4.884,4.884H85.666A4.89,4.89,0,0,0,90.551,46.591Zm-3.256,0a1.63,1.63,0,0,1-1.628,1.628H36.822a1.63,1.63,0,0,1-1.628-1.628V38.45h52.1Zm-40.7-1.628H43.335V41.706h3.256Zm6.513,0H49.847V41.706H53.1Zm6.513,0H56.36V41.706h3.256Zm6.513,0H62.872V41.706h3.256Zm6.513,0H69.385V41.706h3.256Zm6.513,0H75.9V41.706h3.256ZM48.219,67.757H38.45V64.5h8.141V54.732h3.256v11.4A1.628,1.628,0,0,1,48.219,67.757Zm6.513-13.025h3.256v40.7a1.628,1.628,0,0,1-1.628,1.628H38.45V93.807H54.732ZM75.9,64.5h8.141v3.256H74.269a1.628,1.628,0,0,1-1.628-1.628v-11.4H75.9ZM67.757,93.807H84.038v3.256H66.129A1.628,1.628,0,0,1,64.5,95.435v-40.7h3.256ZM41.706,22.169H38.45V18.913h3.256ZM38.45,25.425h3.256v6.513H38.45Z" transform="translate(-12.4 -12.4)"/></g></g></svg>