<svg xmlns="http://www.w3.org/2000/svg" width="15.468" height="19.26" viewBox="0 0 15.468 19.26"><path d="M4.022,151.625H1.095a.631.631,0,0,0-.6.66v12.236a.631.631,0,0,0,.6.66H4.022a.631.631,0,0,0,.595-.66V152.285A.631.631,0,0,0,4.022,151.625ZM3.6,164.051H1.518v-11.3H3.6Zm0,0" transform="translate(-0.483 -145.921)"/><path d="M2.076,0A2.2,2.2,0,0,0,0,2.3,2.2,2.2,0,0,0,2.076,4.6,2.2,2.2,0,0,0,4.151,2.3,2.2,2.2,0,0,0,2.076,0Zm0,3.474A1.12,1.12,0,0,1,1.019,2.3,1.12,1.12,0,0,1,2.076,1.13,1.12,1.12,0,0,1,3.132,2.3,1.12,1.12,0,0,1,2.076,3.474Zm0,0"/><path d="M166.114,153.064a3.573,3.573,0,0,0-2.5-.976,3.536,3.536,0,0,0-1.626.439v-.267a.6.6,0,0,0-.568-.63h-2.98a.6.6,0,0,0-.568.63v12.295a.6.6,0,0,0,.568.63h3.039a.539.539,0,0,0,.509-.565v-7.331a1.123,1.123,0,0,1,1.008-1.177,1.1,1.1,0,0,1,1.071,1.153v7.367a.528.528,0,0,0,.5.553h2.921a.528.528,0,0,0,.5-.553v-7.143a6.02,6.02,0,0,0-1.868-4.425Zm.849,10.991h-1.881v-6.79a2.07,2.07,0,1,0-4.117,0v6.79h-2.079v-11.3h2.079v.821h0a.6.6,0,0,0,.127.375.475.475,0,0,0,.719.048,2.674,2.674,0,0,1,1.817-.786,2.612,2.612,0,0,1,1.832.713,4.84,4.84,0,0,1,1.5,3.558Zm0,0" transform="translate(-152.514 -145.926)"/></svg>