<svg xmlns="http://www.w3.org/2000/svg" xmlns:xlink="http://www.w3.org/1999/xlink" width="111" height="99" viewBox="0 0 111 99"><defs><clipPath id="a"><rect width="111" height="99" transform="translate(0 0.034)" fill="#fff" stroke="#707070" stroke-width="1"/></clipPath></defs><g transform="translate(0 -0.034)" clip-path="url(#a)"><g transform="translate(21.319 14.094)"><path d="M43.787,27A16.659,16.659,0,1,0,60.573,43.659,16.741,16.741,0,0,0,43.787,27ZM58.114,42.469H53.295a9.565,9.565,0,0,0-8.311-8.247V29.439A14.343,14.343,0,0,1,58.114,42.469ZM43.787,50.8a7.14,7.14,0,1,1,7.194-7.139A7.174,7.174,0,0,1,43.787,50.8Zm-1.2-21.358v4.782a9.565,9.565,0,0,0-8.311,8.247H29.458A14.343,14.343,0,0,1,42.588,29.441ZM29.459,44.849h4.819A9.565,9.565,0,0,0,42.589,53.1v4.782A14.343,14.343,0,0,1,29.459,44.849ZM44.986,57.877V53.095A9.565,9.565,0,0,0,53.3,44.848h4.819A14.343,14.343,0,0,1,44.986,57.877Z" transform="translate(4.175 3.938)"/><path d="M41.8,37a4.76,4.76,0,1,0,4.8,4.76A4.783,4.783,0,0,0,41.8,37Zm0,7.139a2.38,2.38,0,1,1,2.4-2.38A2.391,2.391,0,0,1,41.8,44.139Z" transform="translate(6.166 5.837)"/><path d="M72.251,42.647A3.612,3.612,0,0,1,68.9,40.38a3.551,3.551,0,0,1,.77-3.917l2.188-2.17-8.483-8.419-2.187,2.172a3.641,3.641,0,0,1-4.008.739,3.559,3.559,0,0,1-2.222-3.3V22.418H42.966v3.066a3.674,3.674,0,0,1-6.231,2.562l-2.187-2.172-1.519,1.508a16.813,16.813,0,0,0-10.023-8.889A9.541,9.541,0,1,0,8.194,10.519a9.5,9.5,0,0,0,4.372,7.975A16.693,16.693,0,0,0,1,34.318v4.76H11.463a9.447,9.447,0,0,0,1.1,15.114A16.693,16.693,0,0,0,1,70.015v4.76H34.573V71.294l2.163-2.148a3.649,3.649,0,0,1,4.008-.739,3.564,3.564,0,0,1,2.222,3.3v3.066h11.99V71.708a3.674,3.674,0,0,1,6.231-2.562l2.187,2.172L71.859,62.9l-2.188-2.17a3.638,3.638,0,0,1,2.58-6.183h3.09v-11.9ZM32.175,34.318V36.7H19.853l7.5-13.019A14.184,14.184,0,0,1,32.175,34.318Zm-8.065,4.76h5.183A3.784,3.784,0,0,1,29,40.442a3.591,3.591,0,0,1-2.376,2.069A9.558,9.558,0,0,0,24.11,39.077ZM13.072,20.842a4.749,4.749,0,0,0,1.939,3.064l-1.12,4.818-3.736-6.489a14.364,14.364,0,0,1,2.917-1.393Zm4.715-.8a14.475,14.475,0,0,1,2.376.212,2.387,2.387,0,0,1-4.753,0A14.475,14.475,0,0,1,17.787,20.039Zm7.632,2.2-3.736,6.489-1.12-4.818A4.749,4.749,0,0,0,22.5,20.842a14.364,14.364,0,0,1,2.917,1.393Zm-8.141,2.512a4.767,4.767,0,0,0,.51.051,4.767,4.767,0,0,0,.51-.051l1.632,7.022L17.787,35.49l-2.143-3.721ZM10.592,10.519a7.194,7.194,0,1,1,7.194,7.139A7.174,7.174,0,0,1,10.592,10.519ZM3.4,34.318A14.184,14.184,0,0,1,8.224,23.679l7.5,13.019H3.4Zm7.194,11.9a7.194,7.194,0,1,1,7.194,7.139A7.174,7.174,0,0,1,10.592,46.217Zm13.389,8.329h1.692a3.613,3.613,0,0,1,3.351,2.266,3.556,3.556,0,0,1,.248,1.088A16.824,16.824,0,0,0,23.981,54.546ZM13.072,56.539A4.749,4.749,0,0,0,15.011,59.6l-1.12,4.818-3.736-6.489A14.364,14.364,0,0,1,13.072,56.539Zm4.715-.8a14.476,14.476,0,0,1,2.376.212,2.387,2.387,0,0,1-4.753,0A14.476,14.476,0,0,1,17.787,55.736Zm-.51,4.708a4.766,4.766,0,0,0,.51.051,4.766,4.766,0,0,0,.51-.051l1.632,7.022-2.141,3.721-2.143-3.721Zm4.405,3.977L20.562,59.6A4.749,4.749,0,0,0,22.5,56.539a14.364,14.364,0,0,1,2.917,1.393ZM3.4,70.015A14.184,14.184,0,0,1,8.224,59.376l7.5,13.019H3.4Zm28.777,2.38H19.853l7.5-13.019a14.184,14.184,0,0,1,4.826,10.639ZM72.943,52.166h-.692a6,6,0,0,0-5.565,3.728,5.909,5.909,0,0,0,1.288,6.517l.492.488-5.091,5.052-.492-.488A6.04,6.04,0,0,0,56.26,66.21a5.935,5.935,0,0,0-3.7,5.5v.687H45.365v-.687a5.959,5.959,0,0,0-3.757-5.522,6.02,6.02,0,0,0-6.567,1.278l-.492.488-.14-.139a16.478,16.478,0,0,0-3.066-7.582,6.033,6.033,0,0,0-5.67-8.064h-.41a9.252,9.252,0,0,0,2-7.368,6.038,6.038,0,0,0,3.977-3.5,5.9,5.9,0,0,0,.45-2.22h2.886v-4.76a16.511,16.511,0,0,0-.632-4.473l.608-.6.492.488a6.043,6.043,0,0,0,6.622,1.254,5.935,5.935,0,0,0,3.7-5.5V24.8h7.194v.687a5.959,5.959,0,0,0,3.757,5.522,6.023,6.023,0,0,0,6.567-1.278l.492-.488,5.091,5.052-.492.488a6.015,6.015,0,0,0,4.277,10.245h.692Z" transform="translate(-1 -1)"/><path d="M39.4,17.659h11.99v2.1a2.685,2.685,0,0,0,5.079,1.19l1.657-3.289h2.856a2.391,2.391,0,0,0,2.4-2.38V3.38A2.391,2.391,0,0,0,60.981,1H39.4A2.391,2.391,0,0,0,37,3.38v11.9A2.391,2.391,0,0,0,39.4,17.659Zm0-14.279H60.981v11.9H56.643l-2.319,4.6a.3.3,0,0,1-.537-.125V15.279H39.4V3.38Z" transform="translate(6.166 -1)"/><path d="M51,7h2.4V9.38H51Z" transform="translate(8.952 0.139)"/><path d="M47,7h2.4V9.38H47Z" transform="translate(8.156 0.139)"/><path d="M43,7h2.4V9.38H43Z" transform="translate(7.36 0.139)"/></g></g></svg>