<svg xmlns="http://www.w3.org/2000/svg" xmlns:xlink="http://www.w3.org/1999/xlink" width="111" height="99" viewBox="0 0 111 99"><defs><clipPath id="a"><rect width="111" height="99" transform="translate(0 0.048)" fill="#fff" stroke="#707070" stroke-width="1"/></clipPath></defs><g transform="translate(0 -0.048)" clip-path="url(#a)"><g transform="translate(20.548 18.613)"><g transform="translate(0)"><path d="M73.974,0H1.254A1.3,1.3,0,0,0,0,1.337H0V28.095H2.508V2.676H72.719V32.108H28.837v2.676H73.973a1.3,1.3,0,0,0,1.254-1.337h0V1.338A1.3,1.3,0,0,0,73.974,0Z" transform="translate(0 0)"/></g><g transform="translate(40.905 6.691)"><g transform="translate(0 0)"><rect width="25" height="3" transform="translate(-0.453 -0.256)"/></g></g><g transform="translate(45.243 14.644)"><g transform="translate(0 0)"><rect width="25" height="3" transform="translate(0.209 -0.209)"/></g></g><g transform="translate(40.182 23.32)"><g transform="translate(0 0)"><rect width="24" height="2" transform="translate(0.27 0.115)"/></g></g><g transform="translate(0 5.351)"><path d="M40.021,38.183a3.96,3.96,0,0,0-5.29-2.328l-.105.049L24.46,41.531a6.984,6.984,0,0,0,.616-2.842A6.489,6.489,0,0,0,18.807,32a6.489,6.489,0,0,0-6.269,6.689A6.914,6.914,0,0,0,13.824,42.7h-.052a8.646,8.646,0,0,0-7.992,5.939L2.432,60.952a4.379,4.379,0,0,0,2.3,5.538,3.782,3.782,0,0,0,2.929-.018A4.212,4.212,0,0,0,9.973,63.9l1.311-4.453V78.809a5.962,5.962,0,0,0-3.761-1.372,6.478,6.478,0,0,0-6.269,6.669,6.907,6.907,0,0,0,1.894,4.8A6.222,6.222,0,0,0,0,94.37v11.211a1.3,1.3,0,0,0,1.253,1.338H13.792a1.3,1.3,0,0,0,1.254-1.337h0V94.37a6.3,6.3,0,0,0-2.237-4.843H22.3a6.3,6.3,0,0,0-2.237,4.843v11.211a1.3,1.3,0,0,0,1.253,1.338H33.852a1.3,1.3,0,0,0,1.254-1.337h0V94.37A6.222,6.222,0,0,0,31.958,88.9a7,7,0,0,0,.107-9.451,6.016,6.016,0,0,0-5.736-1.88V50.2l11.51-6.377A4.425,4.425,0,0,0,40.021,38.183ZM18.807,34.676a4.022,4.022,0,0,1,0,8.027,4.022,4.022,0,0,1,0-8.027ZM7.523,80.113a4.022,4.022,0,0,1,0,8.027,4.022,4.022,0,0,1,0-8.027Zm5.015,24.131H2.508V94.37a3.405,3.405,0,0,1,3.286-3.505H9.252a3.405,3.405,0,0,1,3.286,3.505ZM32.6,94.37v9.873H22.568V94.37a3.405,3.405,0,0,1,3.286-3.505h3.459A3.405,3.405,0,0,1,32.6,94.37ZM27.583,80.113a4.022,4.022,0,1,1-3.761,4.014A3.9,3.9,0,0,1,27.583,80.113Zm10.144-39.7a1.667,1.667,0,0,1-.946.99L24.5,48.2a1.352,1.352,0,0,0-.677,1.188V78.809a6.876,6.876,0,0,0-1.951,8.042H20.06V64.108H17.553V86.851H13.235a7,7,0,0,0,.552-2.676h0V50.73a1.3,1.3,0,0,0-1.254-1.338,1.266,1.266,0,0,0-1.2.937L7.6,63.041A1.483,1.483,0,0,1,5.668,64a1.466,1.466,0,0,1-.161-.074,1.694,1.694,0,0,1-.7-2.124L8.153,49.5a6.081,6.081,0,0,1,5.618-4.118h8.878a1.186,1.186,0,0,0,.577-.15l12.461-6.9a1.5,1.5,0,0,1,1.973.78A1.727,1.727,0,0,1,37.727,40.415Z" transform="translate(0 -32)"/></g><g transform="translate(40.121 50.774)"><path d="M267.9,315.1a7.01,7.01,0,0,0,.115-9.459,5.994,5.994,0,0,0-8.865-.123,7.01,7.01,0,0,0-.116,9.459q.057.062.116.123A6.222,6.222,0,0,0,256,320.566v11.211a1.3,1.3,0,0,0,1.253,1.338h12.538a1.3,1.3,0,0,0,1.254-1.337h0V320.566A6.222,6.222,0,0,0,267.9,315.1Zm-4.375-8.791a4.022,4.022,0,1,1-3.761,4.014A3.894,3.894,0,0,1,263.523,306.308Zm5.015,24.131h-10.03v-9.873a3.405,3.405,0,0,1,3.286-3.505h3.459a3.405,3.405,0,0,1,3.286,3.505Z" transform="translate(-256 -303.618)"/></g><g transform="translate(60.181 50.774)"><path d="M395.9,315.1a7.01,7.01,0,0,0,.115-9.459,5.994,5.994,0,0,0-8.865-.123,7.01,7.01,0,0,0-.116,9.459q.057.062.116.123A6.222,6.222,0,0,0,384,320.566v11.211a1.3,1.3,0,0,0,1.253,1.338h12.538a1.3,1.3,0,0,0,1.254-1.337h0V320.566A6.221,6.221,0,0,0,395.9,315.1Zm-4.375-8.791a4.022,4.022,0,1,1-3.761,4.014A3.894,3.894,0,0,1,391.523,306.308Zm5.015,24.131h-10.03v-9.873a3.405,3.405,0,0,1,3.286-3.505h3.459a3.405,3.405,0,0,1,3.286,3.505Z" transform="translate(-384 -303.618)"/></g></g></g></svg>