<svg xmlns="http://www.w3.org/2000/svg" width="14.658" height="16.259" viewBox="0 0 14.658 16.259"><path d="M12.576,2.309A6.728,6.728,0,0,0,7.55,0h0a6.474,6.474,0,0,0-2.72.6,7.073,7.073,0,0,0-2.306,1.71A8.287,8.287,0,0,0,.441,7.885,8.614,8.614,0,0,0,1.232,11.5L.037,15.287a.782.782,0,0,0,.156.757.622.622,0,0,0,.463.215.605.605,0,0,0,.22-.042L4.29,14.892a6.57,6.57,0,0,0,3.26.877,6.729,6.729,0,0,0,5.026-2.309,8.287,8.287,0,0,0,2.082-5.575,8.287,8.287,0,0,0-2.082-5.575Zm-.608,10.476a5.915,5.915,0,0,1-4.418,2.03,5.779,5.779,0,0,1-2.933-.81.6.6,0,0,0-.528-.045l-3.1,1.2,1.085-3.44a.807.807,0,0,0-.041-.586A7.562,7.562,0,0,1,1.3,7.885a7.285,7.285,0,0,1,1.83-4.9A5.916,5.916,0,0,1,7.549.954h0a5.915,5.915,0,0,1,4.418,2.03,7.284,7.284,0,0,1,1.83,4.9,7.285,7.285,0,0,1-1.83,4.9Zm0,0" transform="translate(0)"/><path d="M133.893,118.761a.782.782,0,0,0-1.186,0l-.358.4a5.525,5.525,0,0,1-2.091-2.319l.358-.4a1,1,0,0,0,0-1.316l-.964-1.069a.782.782,0,0,0-1.186,0l-.771.855a2.3,2.3,0,0,0-.062,2.371,9.468,9.468,0,0,0,1.8,2.793,8.55,8.55,0,0,0,2.518,1.993,2.861,2.861,0,0,0,1.2.317,1.21,1.21,0,0,0,.938-.386l.771-.855h0a1,1,0,0,0,0-1.316Zm-.415,2.566c-.126.14-.514.189-1.191-.133a7.683,7.683,0,0,1-2.249-1.791,8.494,8.494,0,0,1-1.615-2.494c-.29-.752-.246-1.182-.12-1.321l.756-.839.934,1.036-.448.5a.788.788,0,0,0-.121.847,6.436,6.436,0,0,0,2.664,2.955.609.609,0,0,0,.764-.135l.448-.5.934,1.036Zm0,0" transform="translate(-123.701 -110.172)"/></svg>